<svg id="visual" viewBox="0 0 1920 1080" width="100%" height="100%" xmlns="http://www.w3.org/2000/svg" xmlns:xlink="http://www.w3.org/1999/xlink" version="1.1" class="home-bg">
  <rect x="0" y="0" width="100%" height="100%" fill-opacity="0" fill="#74b99c"></rect><defs><linearGradient id="grad1_0" x1="43.8%" y1="0%" x2="100%" y2="100%"><stop offset="14.444444444444446%" stop-color="#e8c38c" stop-opacity="1"></stop><stop offset="85.55555555555554%" stop-color="#e8c38c" stop-opacity="1"></stop></linearGradient></defs><defs><linearGradient id="grad1_1" x1="43.8%" y1="0%" x2="100%" y2="100%"><stop offset="14.444444444444446%" stop-color="#e8c38c" stop-opacity="1"></stop><stop offset="85.55555555555554%" stop-color="#74b99c" stop-opacity="1"></stop></linearGradient></defs><defs><linearGradient id="grad2_0" x1="0%" y1="0%" x2="56.3%" y2="100%"><stop offset="14.444444444444446%" stop-color="#e8c38c" stop-opacity="1"></stop><stop offset="85.55555555555554%" stop-color="#e8c38c" stop-opacity="1"></stop></linearGradient></defs><defs><linearGradient id="grad2_1" x1="0%" y1="0%" x2="56.3%" y2="100%"><stop offset="14.444444444444446%" stop-color="#74b99c" stop-opacity="1"></stop><stop offset="85.55555555555554%" stop-color="#e8c38c" stop-opacity="1"></stop></linearGradient></defs><g transform="translate(1920, 0)"><path d="M0 528C-56.9 575.2 -113.7 622.4 -167.7 625.9C-221.7 629.4 -272.7 589.1 -316 547.3C-359.3 505.5 -394.7 462.1 -411.5 411.5C-428.3 361 -426.5 303.2 -448.6 259C-470.7 214.8 -516.9 184.3 -535.1 143.4C-553.4 102.5 -543.7 51.2 -534 0L0 0Z" fill="#adc188"></path><path d="M0 264C-28.4 287.6 -56.9 311.2 -83.9 313C-110.8 314.7 -136.4 294.6 -158 273.7C-179.6 252.8 -197.4 231.1 -205.8 205.8C-214.2 180.5 -213.2 151.6 -224.3 129.5C-235.4 107.4 -258.4 92.1 -267.6 71.7C-276.7 51.2 -271.8 25.6 -267 0L0 0Z" fill="#e8c38c"></path></g><g transform="translate(0, 1080)"><path d="M0 -648C58.8 -649.1 117.6 -650.1 166.9 -623C216.3 -595.9 256.1 -540.7 283 -490.2C309.9 -439.6 323.8 -393.8 367 -367C410.2 -340.2 482.8 -332.4 516.2 -298C549.5 -263.6 543.7 -202.7 554.4 -148.6C565.2 -94.5 592.6 -47.2 620 0L0 0Z" fill="#adc188"></path><path d="M0 -324C29.4 -324.5 58.8 -325.1 83.5 -311.5C108.1 -298 128.1 -270.4 141.5 -245.1C154.9 -219.8 161.9 -196.9 183.5 -183.5C205.1 -170.1 241.4 -166.2 258.1 -149C274.8 -131.8 271.8 -101.3 277.2 -74.3C282.6 -47.2 296.3 -23.6 310 0L0 0Z" fill="#e8c38c"></path></g></svg>