<svg id="visual" viewBox="0 0 1920 768" width="1920" height="768" xmlns="http://www.w3.org/2000/svg" xmlns:xlink="http://www.w3.org/1999/xlink" version="1.1"><rect x="0" y="0" width="1920" height="768" fill="#85cef1"></rect><path d="M0 463L45.7 462C91.3 461 182.7 459 274.2 465.8C365.7 472.7 457.3 488.3 548.8 499C640.3 509.7 731.7 515.3 823 506.8C914.3 498.3 1005.7 475.7 1097 476C1188.3 476.3 1279.7 499.7 1371.2 510.5C1462.7 521.3 1554.3 519.7 1645.8 528C1737.3 536.3 1828.7 554.7 1874.3 563.8L1920 573L1920 769L1874.3 769C1828.7 769 1737.3 769 1645.8 769C1554.3 769 1462.7 769 1371.2 769C1279.7 769 1188.3 769 1097 769C1005.7 769 914.3 769 823 769C731.7 769 640.3 769 548.8 769C457.3 769 365.7 769 274.2 769C182.7 769 91.3 769 45.7 769L0 769Z" fill="#b4e2d2"></path><path d="M0 517L45.7 532.3C91.3 547.7 182.7 578.3 274.2 589.7C365.7 601 457.3 593 548.8 580.5C640.3 568 731.7 551 823 551.2C914.3 551.3 1005.7 568.7 1097 569.7C1188.3 570.7 1279.7 555.3 1371.2 551.3C1462.7 547.3 1554.3 554.7 1645.8 556.7C1737.3 558.7 1828.7 555.3 1874.3 553.7L1920 552L1920 769L1874.3 769C1828.7 769 1737.3 769 1645.8 769C1554.3 769 1462.7 769 1371.2 769C1279.7 769 1188.3 769 1097 769C1005.7 769 914.3 769 823 769C731.7 769 640.3 769 548.8 769C457.3 769 365.7 769 274.2 769C182.7 769 91.3 769 45.7 769L0 769Z" fill="#a4dcc7"></path><path d="M0 604L45.7 598.5C91.3 593 182.7 582 274.2 581.2C365.7 580.3 457.3 589.7 548.8 594.2C640.3 598.7 731.7 598.3 823 596.5C914.3 594.7 1005.7 591.3 1097 587.8C1188.3 584.3 1279.7 580.7 1371.2 589.7C1462.7 598.7 1554.3 620.3 1645.8 623.8C1737.3 627.3 1828.7 612.7 1874.3 605.3L1920 598L1920 769L1874.3 769C1828.7 769 1737.3 769 1645.8 769C1554.3 769 1462.7 769 1371.2 769C1279.7 769 1188.3 769 1097 769C1005.7 769 914.3 769 823 769C731.7 769 640.3 769 548.8 769C457.3 769 365.7 769 274.2 769C182.7 769 91.3 769 45.7 769L0 769Z" fill="#94d5bb"></path><path d="M0 691L45.7 690.3C91.3 689.7 182.7 688.3 274.2 679C365.7 669.7 457.3 652.3 548.8 647.8C640.3 643.3 731.7 651.7 823 658.3C914.3 665 1005.7 670 1097 664.2C1188.3 658.3 1279.7 641.7 1371.2 633.8C1462.7 626 1554.3 627 1645.8 626C1737.3 625 1828.7 622 1874.3 620.5L1920 619L1920 769L1874.3 769C1828.7 769 1737.3 769 1645.8 769C1554.3 769 1462.7 769 1371.2 769C1279.7 769 1188.3 769 1097 769C1005.7 769 914.3 769 823 769C731.7 769 640.3 769 548.8 769C457.3 769 365.7 769 274.2 769C182.7 769 91.3 769 45.7 769L0 769Z" fill="#84c7ab"></path><path d="M0 701L45.7 696.8C91.3 692.7 182.7 684.3 274.2 687.5C365.7 690.7 457.3 705.3 548.8 709.3C640.3 713.3 731.7 706.7 823 706.8C914.3 707 1005.7 714 1097 717.7C1188.3 721.3 1279.7 721.7 1371.2 714.8C1462.7 708 1554.3 694 1645.8 687.3C1737.3 680.7 1828.7 681.3 1874.3 681.7L1920 682L1920 769L1874.3 769C1828.7 769 1737.3 769 1645.8 769C1554.3 769 1462.7 769 1371.2 769C1279.7 769 1188.3 769 1097 769C1005.7 769 914.3 769 823 769C731.7 769 640.3 769 548.8 769C457.3 769 365.7 769 274.2 769C182.7 769 91.3 769 45.7 769L0 769Z" fill="#74b99c"></path></svg>